<mxfile host="app.diagrams.net" modified="2023-07-17T11:37:01.110Z" agent="Mozilla/5.0 (Windows NT 10.0; Win64; x64) AppleWebKit/537.36 (KHTML, like Gecko) Chrome/114.0.0.0 Safari/537.36" version="21.3.7" etag="II_5bXAH2ekI5mKkeGz0" type="github">
  <diagram name="第 1 页" id="5iZNoatxZsWWmWazBa-Q">
    <mxGraphModel>
      <root>
        <mxCell id="0" />
        <mxCell id="1" parent="0" />
      </root>
    </mxGraphModel>
  </diagram>
</mxfile>
